<?xml version="1.0" encoding="UTF-8"?>
<svg xmlns="http://www.w3.org/2000/svg" width="91.44mm" height="128.5mm" viewBox="0 0 91.44 128.5">
  <!-- SpaceTime PROGRAM - light Bone design system. -->
  <rect width="91.44" height="128.5" fill="#e7e4de"/>

  <circle cx="1.870" cy="1.870" r="0.735" fill="#aaa39a" stroke="#70685f" stroke-width="0.3"/>
  <circle cx="89.570" cy="1.870" r="0.735" fill="#aaa39a" stroke="#70685f" stroke-width="0.3"/>
  <circle cx="1.870" cy="126.630" r="0.735" fill="#aaa39a" stroke="#70685f" stroke-width="0.3"/>
  <circle cx="89.570" cy="126.630" r="0.735" fill="#aaa39a" stroke="#70685f" stroke-width="0.3"/>

  <rect x="4" y="10.05" width="16" height="0.27" fill="#a83232" opacity="0.65"/>
  <rect x="71.4" y="10.05" width="16" height="0.27" fill="#a83232" opacity="0.65"/>

  <rect x="8" y="16.5" width="12" height="7" rx="0.8" fill="#171513" stroke="#786f66" stroke-width="0.3"/>

  <rect x="6" y="28.0" width="16" height="0.27" fill="#9a9288"/>
  <rect x="52" y="28.0" width="16" height="0.27" fill="#9a9288"/>
  <rect x="6" y="66.0" width="14" height="0.27" fill="#9a9288"/>
  <rect x="58" y="66.0" width="14" height="0.27" fill="#9a9288"/>
  <rect x="6" y="87.9" width="16" height="0.27" fill="#9a9288"/>
  <rect x="56" y="87.9" width="16" height="0.27" fill="#9a9288"/>
  <rect x="6" y="104.2" width="10" height="0.27" fill="#9a9288"/>
  <rect x="62" y="104.2" width="10" height="0.27" fill="#9a9288"/>

  <rect x="78" y="102" width="12" height="17.5" rx="1.5" fill="#d5d1ca" stroke="#81786e" stroke-width="0.25"/>
</svg>
